<svg width="13" height="13" viewBox="0 0 13 13" fill="none" xmlns="http://www.w3.org/2000/svg">
<g id="&#240;&#159;&#166;&#134; icon &#34;task done&#34;">
<path id="Vector" fill-rule="evenodd" clip-rule="evenodd" d="M1.91408 2.71535H6.69927C7.22782 2.71535 7.65631 2.27538 7.65631 1.73267C7.65631 1.18996 7.22782 0.75 6.69927 0.75H1.91408C0.856961 0.75 0 1.62992 0 2.71535V10.5767C0 11.6622 0.856961 12.5421 1.91408 12.5421H9.57039C10.6275 12.5421 11.4845 11.6622 11.4845 10.5767V8.61139C11.4845 8.06867 11.056 7.62871 10.5274 7.62871C9.99885 7.62871 9.57039 8.06867 9.57039 8.61139V10.5767H1.91408V2.71535ZM12.6397 1.03782C12.266 0.654062 11.66 0.654062 11.2863 1.03782L6.22075 6.23901L5.46192 5.45985C5.08817 5.07609 4.48221 5.07609 4.10846 5.45985C3.73472 5.84361 3.73472 6.4658 4.10846 6.84956L5.54402 8.32357C5.7235 8.50785 5.96693 8.61139 6.22075 8.61139C6.47458 8.61139 6.718 8.50785 6.89748 8.32357L12.6397 2.42753C13.0134 2.04377 13.0134 1.42158 12.6397 1.03782Z" fill="#2D4991"/>
</g>
</svg>
